<?xml version="1.0" encoding="UTF-8" standalone="no"?>
<!-- Uploaded to: SVG Repo, www.svgrepo.com, Generator: SVG Repo Mixer Tools -->

<svg
   fill="#000000"
   width="800"
   height="800"
   viewBox="0 0 52 52"
   enable-background="new 0 0 52 52"
   xml:space="preserve"
   version="1.1"
   id="svg1"
   xmlns="http://www.w3.org/2000/svg"
   xmlns:svg="http://www.w3.org/2000/svg"><defs
   id="defs1" />
<path
   d="M 48.6,23 H 15.4 c -0.9,0 -1.3,-1.1 -0.7,-1.7 l 9.6,-9.6 c 0.6,-0.6 0.6,-1.5 0,-2.1 L 22.1,7.4 C 21.5,6.8 20.6,6.8 20,7.4 L 2.5,25 c -0.6,0.6 -0.6,1.5 0,2.1 L 20,44.6 c 0.6,0.6 1.5,0.6 2.1,0 l 2.1,-2.1 c 0.6,-0.6 0.6,-1.5 0,-2.1 L 14.6,30.8 C 14,30.1 14.4,29 15.3,29 h 33.2 c 0.8,0 1.5,-0.6 1.5,-1.4 v -3 C 50,23.8 49.4,23 48.6,23 Z"
   id="path1"
   style="fill:#831b10;fill-opacity:1" />
</svg>
