<?xml version="1.0" encoding="UTF-8" standalone="no"?>
<!-- Uploaded to: SVG Repo, www.svgrepo.com, Generator: SVG Repo Mixer Tools -->

<svg
   fill="#000000"
   width="800"
   height="800"
   viewBox="-5.5 0 19 19"
   class="cf-icon-svg"
   version="1.1"
   id="svg1"
   xmlns="http://www.w3.org/2000/svg"
   xmlns:svg="http://www.w3.org/2000/svg">
  <defs
     id="defs1" />
  <path
     d="M 7.987,5.653 A 4.536,4.536 0 0 1 7.838,6.866 4.276,4.276 0 0 1 7.449,7.824 5.186,5.186 0 0 1 6.916,8.597 C 6.721,8.83 6.53,9.051 6.348,9.255 L 6.324,9.281 C 6.154,9.461 5.996,9.634 5.856,9.797 a 3.596,3.596 0 0 0 -0.4,0.567 2.832,2.832 0 0 0 -0.274,0.677 3.374,3.374 0 0 0 -0.099,0.858 v 0.05 a 1.03,1.03 0 0 1 -2.058,0 v -0.05 a 5.427,5.427 0 0 1 0.167,-1.385 4.92,4.92 0 0 1 0.474,-1.17 5.714,5.714 0 0 1 0.63,-0.89 C 4.454,8.27 4.631,8.074 4.821,7.875 4.987,7.688 5.161,7.485 5.341,7.272 A 3.108,3.108 0 0 0 5.66,6.808 2.236,2.236 0 0 0 5.856,6.313 2.466,2.466 0 0 0 5.929,5.653 1.891,1.891 0 0 0 5.782,4.891 1.944,1.944 0 0 0 5.366,4.258 1.917,1.917 0 0 0 4.746,3.84 1.758,1.758 0 0 0 4.023,3.696 1.823,1.823 0 0 0 3.277,3.842 1.961,1.961 0 0 0 2.217,4.904 1.833,1.833 0 0 0 2.071,5.651 v 0.028 a 1.03,1.03 0 1 1 -2.058,0 V 5.651 A 3.882,3.882 0 0 1 0.327,4.091 4.017,4.017 0 0 1 2.462,1.952 3.866,3.866 0 0 1 4.023,1.638 3.792,3.792 0 0 1 5.566,1.952 3.975,3.975 0 0 1 7.678,4.09 3.933,3.933 0 0 1 7.988,5.653 Z m -2.738,9.81 a 1.337,1.337 0 0 1 0,1.033 1.338,1.338 0 0 1 -0.71,0.71 L 4.534,17.209 A 1.278,1.278 0 0 1 4.029,17.312 1.338,1.338 0 0 1 2.785,16.496 1.313,1.313 0 0 1 3.069,15.045 1.396,1.396 0 0 1 3.503,14.762 1.346,1.346 0 0 1 4.029,14.657 1.284,1.284 0 0 1 4.534,14.76 l 0.005,0.003 a 1.404,1.404 0 0 1 0.425,0.281 1.28,1.28 0 0 1 0.285,0.418 z"
     id="path1"
     style="fill:#831b10;fill-opacity:1" />
</svg>
