<svg id="color" enable-background="new 0 0 24 24" height="512" viewBox="0 0 24 24" width="512" xmlns="http://www.w3.org/2000/svg"><path d="m23.25 17h-22.5c-.414 0-.75-.336-.75-.75s.336-.75.75-.75h22.5c.414 0 .75.336.75.75s-.336.75-.75.75z" fill="#607d8b"/><path d="m24 16.25h-24c0 .414.336.75.75.75h22.5c.414 0 .75-.336.75-.75z" fill="#546d79"/><path d="m23.25 8.5h-22.5c-.414 0-.75-.336-.75-.75s.336-.75.75-.75h22.5c.414 0 .75.336.75.75s-.336.75-.75.75z" fill="#607d8b"/><path d="m24 7.75h-24c0 .414.336.75.75.75h22.5c.414 0 .75-.336.75-.75z" fill="#546d79"/><path d="m22.25 6c-.192 0-.384-.073-.53-.22l-3.5-3.5c-.293-.293-.293-.768 0-1.061s.768-.293 1.061 0l3.5 3.5c.293.293.293.768 0 1.061-.147.147-.339.22-.531.22z" fill="#f44336"/><path d="m18.22 1.22c-.293.293-.293.768 0 1.061l3.5 3.5c.146.146.338.219.53.219s.384-.073.53-.22z" fill="#d43a2f"/><path d="m22.25 23c-.192 0-.384-.073-.53-.22l-3.5-3.5c-.293-.293-.293-.768 0-1.061s.768-.293 1.061 0l3.5 3.5c.293.293.293.768 0 1.061-.147.147-.339.22-.531.22z" fill="#f44336"/><path d="m18.22 18.22c-.293.293-.293.768 0 1.061l3.5 3.5c.147.146.338.22.53.22s.384-.073.53-.22z" fill="#d43a2f"/><path d="m16.25 24c-.414 0-.75-.336-.75-.75v-22.5c0-.414.336-.75.75-.75s.75.336.75.75v22.5c0 .414-.336.75-.75.75z" fill="#607d8b"/><path d="m3 6c-1.654 0-3-1.346-3-3s1.346-3 3-3 3 1.346 3 3-1.346 3-3 3zm0-4.5c-.827 0-1.5.673-1.5 1.5s.673 1.5 1.5 1.5 1.5-.673 1.5-1.5-.673-1.5-1.5-1.5z" fill="#2196f3"/><path d="m3 0c-1.654 0-3 1.346-3 3s1.346 3 3 3v-1.5c-.827 0-1.5-.673-1.5-1.5s.673-1.5 1.5-1.5z" fill="#1d83d4"/><path d="m12 15c-1.654 0-3-1.346-3-3s1.346-3 3-3 3 1.346 3 3-1.346 3-3 3zm0-4.5c-.827 0-1.5.673-1.5 1.5s.673 1.5 1.5 1.5 1.5-.673 1.5-1.5-.673-1.5-1.5-1.5z" fill="#2196f3"/><path d="m12 9c-1.654 0-3 1.346-3 3s1.346 3 3 3v-1.5c-.827 0-1.5-.673-1.5-1.5s.673-1.5 1.5-1.5z" fill="#1d83d4"/><path d="m18.75 23c-.192 0-.384-.073-.53-.22-.293-.293-.293-.768 0-1.061l3.5-3.5c.293-.293.768-.293 1.061 0s.293.768 0 1.061l-3.5 3.5c-.147.147-.339.22-.531.22z" fill="#f44336"/><path d="m22.25 18c-.192 0-.384.073-.53.22l-3.5 3.5c-.293.293-.293.768 0 1.061l4.561-4.561c-.147-.147-.339-.22-.531-.22z" fill="#d43a2f"/><path d="m18.75 6c-.192 0-.384-.073-.53-.22-.293-.293-.293-.768 0-1.061l3.5-3.5c.293-.293.768-.293 1.061 0s.293.768 0 1.061l-3.5 3.5c-.147.147-.339.22-.531.22z" fill="#f44336"/><path d="m22.25 1c-.192 0-.384.073-.53.22l-3.5 3.5c-.293.293-.293.768 0 1.061l4.56-4.561c-.146-.147-.338-.22-.53-.22z" fill="#d43a2f"/><path d="m7.75 24c-.414 0-.75-.336-.75-.75v-22.5c0-.414.336-.75.75-.75s.75.336.75.75v22.5c0 .414-.336.75-.75.75z" fill="#607d8b"/><g fill="#546d79"><path d="m7.75 0c-.414 0-.75.336-.75.75v22.5c0 .414.336.75.75.75z"/><path d="m16.25 0c-.414 0-.75.336-.75.75v22.5c0 .414.336.75.75.75z"/></g></svg>