<?xml version="1.0" encoding="UTF-8" standalone="no"?>
<!-- Created with Inkscape (http://www.inkscape.org/) -->

<svg
   width="200"
   height="200"
   viewBox="0 0 52.916666 52.916666"
   version="1.1"
   id="svg1"
   xmlns="http://www.w3.org/2000/svg"
   xmlns:svg="http://www.w3.org/2000/svg">
  <g
     id="layer1">
    <g
       id="g16"
       transform="matrix(0.26458333,0,0,0.26458333,-123.06792,-30.88309)">
      <path
         style="fill:#392414"
         d="m 638.865,187.24 c -11.662,22.059 -42.993,25.086 -62.359,8.865 -19.504,-16.337 -0.958,-53.997 21.85,-56.364 24.844,-2.568 53.354,23.202 40.509,47.499 z"
         id="path1" />
      <path
         style="fill:#392414"
         d="m 534.513,131.613 c -7.057,13.952 -3.376,27.891 3.141,41.301 2.083,4.286 8.456,0.537 6.382,-3.73 -5.248,-10.799 -8.898,-22.458 -3.141,-33.84 2.145,-4.242 -4.23,-7.985 -6.382,-3.731 z"
         id="path2" />
      <path
         style="fill:#392414"
         d="m 509.34,190.74 c -6.323,-3.445 -13.852,-9.906 -16.04,-17.008 -1.399,-4.54 -8.534,-2.603 -7.127,1.965 2.764,8.971 11.376,17.033 19.436,21.425 4.187,2.281 7.917,-4.101 3.731,-6.382 z"
         id="path3" />
      <path
         style="fill:#392414"
         d="m 485.792,229.692 c -4.526,-0.872 -9.862,-1.388 -13.151,-4.962 -3.234,-3.514 -8.447,1.726 -5.226,5.226 4.249,4.617 10.533,5.73 16.412,6.863 4.656,0.897 6.642,-6.226 1.965,-7.127 z"
         id="path4" />
      <path
         style="fill:#392414"
         d="m 590.895,306.399 c -2.979,-3.21 -4.932,-8.435 -5.077,-12.785 -0.068,-2.038 -1.63,-3.662 -3.695,-3.695 0.718,0.718 1.437,1.437 2.156,2.156 -0.078,-4.761 -7.469,-4.769 -7.391,0 0.055,3.379 1.856,5.18 5.235,5.235 -1.232,-1.232 -2.464,-2.464 -3.696,-3.695 0.212,6.346 2.907,13.339 7.242,18.011 3.248,3.499 8.462,-1.739 5.226,-5.227 z"
         id="path5" />
      <path
         style="fill:#392414"
         d="m 632.935,263.743 c -2.757,0 -5.177,-0.072 -7.847,-0.822 -1.301,-0.365 -5.887,-1.773 -5.527,-3.738 0.853,-4.658 -6.269,-6.649 -7.127,-1.965 -2.047,11.18 12.327,13.916 20.501,13.916 4.766,0 4.766,-7.391 0,-7.391 z"
         id="path6" />
      <path
         style="fill:#392414"
         d="m 650.131,217.348 c -1.676,2.235 -13.264,7.216 -13.5,2.358 -0.231,-4.744 -7.623,-4.766 -7.391,0 0.714,14.66 21.326,9.303 27.273,1.372 2.862,-3.817 -3.56,-7.495 -6.382,-3.73 z"
         id="path7" />
      <path
         style="fill:#392414"
         d="m 609.838,139.022 c -3.022,-0.318 1.787,1.143 1.759,0.853 -0.071,-0.736 -0.017,-1.525 0.091,-2.255 0.292,-1.979 0.905,-3.913 1.6,-5.782 1.191,-3.201 3.326,-3.879 3.326,-7.598 0,-4.766 -7.391,-4.766 -7.391,0 0,0.513 0,1.026 0,1.54 0.61,-1.064 1.22,-2.127 1.83,-3.191 -5.914,3.694 -11.64,22.725 -1.214,23.824 4.737,0.499 4.689,-6.897 -0.001,-7.391 z"
         id="path8" />
      <path
         style="fill:#392414"
         d="m 638.296,174.735 c 8.588,2.566 17.499,-0.809 24.29,-6.124 3.751,-2.936 -1.519,-8.127 -5.226,-5.226 -4.71,3.686 -11.211,5.982 -17.099,4.223 -4.578,-1.367 -6.52,5.766 -1.965,7.127 z"
         id="path9" />
      <path
         style="fill:#e9b635;fill-opacity:1"
         d="m 637.461,217.572 c -2.129,38.654 -29.327,79.082 -70.391,82.275 -20.576,1.596 -40.591,-5.1 -55.58,-17.635 -13.244,-11.072 -22.572,-26.711 -24.863,-45.188 -4.908,-39.423 25.779,-76.54 62.113,-88.218 36.999,-11.885 77.116,13.304 86.68,49.164 1.671,6.254 2.41,12.832 2.041,19.602 z"
         id="path10" />
      <path
         style="fill:#dda309;fill-opacity:1"
         d="m 637.461,217.572 c -2.129,38.654 -29.327,79.082 -70.391,82.275 -20.576,1.596 -40.591,-5.1 -55.58,-17.635 24.006,12.491 49.888,5.913 76.791,-8.234 34.234,-17.989 35.831,-43.163 47.139,-76.008 1.671,6.254 2.41,12.832 2.041,19.602 z"
         id="path11" />
    </g>
  </g>
  <g
     id="SVGRepo_iconCarrier"
     transform="matrix(1.5043489,0,0,1.5043489,7.7557086,9.1346482)">
    <path
       id="path1-1"
       d="M 17,5.15 A 23.88,23.88 0 0 1 13.73,2.31 1,1 0 0 0 12.64,2.07 1,1 0 0 0 12,3 v 10.76 a 4.5,4.5 0 1 0 2,3.74 V 5.34 a 15.88,15.88 0 0 0 1.9,1.49 c 0.83,0.54 1.57,1.41 0.74,3.85 A 1,1 0 0 0 17.27,12 1,1 0 0 0 18.54,11.37 C 19.49,8.5 19,6.43 17,5.15 Z"
       style="fill:#831b10;fill-opacity:1" />
  </g>
</svg>
