<?xml version="1.0" encoding="UTF-8" standalone="no"?>
<!-- Uploaded to: SVG Repo, www.svgrepo.com, Generator: SVG Repo Mixer Tools -->

<svg
   width="800"
   height="800"
   viewBox="-1 0 8 8"
   version="1.1"
   id="svg1"
   xmlns="http://www.w3.org/2000/svg"
   xmlns:svg="http://www.w3.org/2000/svg">
  <title
     id="title1">pause [#1006]</title>
  <desc
     id="desc1">Created with Sketch.</desc>
  <defs
     id="defs1" />
  <g
     id="Page-1"
     stroke="none"
     stroke-width="1"
     fill="none"
     fill-rule="evenodd"
     style="fill:#831b10;fill-opacity:1">
    <g
       id="Dribbble-Light-Preview"
       transform="translate(-227,-3765)"
       fill="#000000"
       style="fill:#831b10;fill-opacity:1">
      <g
         id="icons"
         transform="translate(56,160)"
         style="fill:#831b10;fill-opacity:1">
        <path
           d="m 172,3605 c -0.552,0 -1,0.448 -1,1 v 6 c 0,0.552 0.448,1 1,1 0.552,0 1,-0.448 1,-1 v -6 c 0,-0.552 -0.448,-1 -1,-1 m 5,1 v 6 c 0,0.552 -0.448,1 -1,1 -0.552,0 -1,-0.448 -1,-1 v -6 c 0,-0.552 0.448,-1 1,-1 0.552,0 1,0.448 1,1"
           id="pause-[#1006]"
           style="fill:#831b10;fill-opacity:1" />
      </g>
    </g>
  </g>
</svg>
